<svg xmlns="http://www.w3.org/2000/svg" xmlns:xlink="http://www.w3.org/1999/xlink" version="1.1" x="0px" y="0px" viewBox="0 0 100 100" enable-background="new 0 0 100 100" xml:space="preserve"><path d="M58.436,30.863c-1.634-1.635-2.994-1.413-3.66-1.139c-0.666,0.276-1.784,1.084-1.784,3.395v13.037L37.696,30.863  c-1.634-1.635-2.995-1.413-3.661-1.139c-0.666,0.276-1.784,1.084-1.784,3.395v33.762c0,2.311,1.118,3.118,1.784,3.395  c0.241,0.101,0.572,0.191,0.976,0.191c0.71,0,1.643-0.287,2.686-1.33L52.99,53.844v13.037c0,2.311,1.117,3.118,1.783,3.395  c0.242,0.101,0.572,0.191,0.977,0.191c0.71,0,1.643-0.287,2.686-1.33l15.967-15.965c1.748-1.749,1.748-4.595,0-6.344L58.436,30.863z   M51.41,50.92L35.445,66.886c-0.004,0.005-0.008,0.009-0.011,0.011c0-0.004,0-0.01,0-0.016V33.119c0-0.006,0-0.011,0-0.016  c0.003,0.003,0.007,0.007,0.011,0.011L51.41,49.08C51.909,49.578,51.909,50.422,51.41,50.92z M72.148,50.92L56.186,66.886  c-0.004,0.005-0.009,0.009-0.012,0.011c0-0.004,0-0.01,0-0.016V33.119c0-0.006,0-0.011,0-0.016c0.003,0.003,0.008,0.007,0.012,0.011  L72.148,49.08C72.648,49.578,72.648,50.422,72.148,50.92z"/><path d="M50,5C25.188,5,5,25.188,5,50c0,24.813,20.188,45,45,45c24.813,0,45-20.188,45-45C95,25.188,74.813,5,50,5z M50,91.816  C26.942,91.816,8.184,73.059,8.184,50C8.184,26.942,26.942,8.184,50,8.184c23.059,0,41.816,18.758,41.816,41.816  C91.816,73.059,73.059,91.816,50,91.816z"/></svg>
