<svg xmlns="http://www.w3.org/2000/svg" viewBox="0 0 100 100"><path fill="#CD201F" d="M58.436 30.863c-1.634-1.635-2.994-1.413-3.66-1.139-.666.276-1.784 1.084-1.784 3.395v13.037L37.696 30.863c-1.634-1.635-2.995-1.413-3.661-1.139-.666.276-1.784 1.084-1.784 3.395v33.762c0 2.311 1.118 3.118 1.784 3.395.241.101.572.191.976.191.71 0 1.643-.287 2.686-1.33L52.99 53.844v13.037c0 2.311 1.117 3.118 1.783 3.395.242.101.572.191.977.191.71 0 1.643-.287 2.686-1.33l15.967-15.965a4.493 4.493 0 0 0 0-6.344L58.436 30.863zM51.41 50.92L35.445 66.886a.056.056 0 0 1-.011.011V33.119v-.016l.011.011L51.41 49.08a1.318 1.318 0 0 1 0 1.84zm20.738 0L56.186 66.886a.057.057 0 0 1-.012.011V33.119v-.016l.012.011L72.148 49.08c.5.498.5 1.342 0 1.84z"/><path fill="#CD201F" d="M50 5C25.188 5 5 25.188 5 50c0 24.813 20.188 45 45 45 24.813 0 45-20.188 45-45S74.813 5 50 5zm0 86.816C26.942 91.816 8.184 73.059 8.184 50 8.184 26.942 26.942 8.184 50 8.184c23.059 0 41.816 18.758 41.816 41.816 0 23.059-18.757 41.816-41.816 41.816z"/></svg>